<mxfile host="app.diagrams.net" agent="Mozilla/5.0 (Windows NT 10.0; Win64; x64) AppleWebKit/537.36 (KHTML, like Gecko) Chrome/127.0.0.0 Safari/537.36" version="24.7.6">
  <diagram name="Halaman-1" id="l7JBppPuZHU3ig5e6itf">
    <mxGraphModel dx="662" dy="378" grid="1" gridSize="10" guides="1" tooltips="1" connect="1" arrows="1" fold="1" page="1" pageScale="1" pageWidth="827" pageHeight="1169" math="0" shadow="0">
      <root>
        <mxCell id="0" />
        <mxCell id="1" parent="0" />
        <mxCell id="nqur4pg8UYw31Mnw8dUd-1" value="start" style="strokeWidth=2;html=1;shape=mxgraph.flowchart.start_1;whiteSpace=wrap;" vertex="1" parent="1">
          <mxGeometry x="365" y="30" width="70" height="40" as="geometry" />
        </mxCell>
        <mxCell id="nqur4pg8UYw31Mnw8dUd-2" value="&lt;div style=&quot;&quot;&gt;n, i, j, tmp, min&lt;/div&gt;" style="verticalLabelPosition=middle;verticalAlign=middle;html=1;shape=hexagon;perimeter=hexagonPerimeter2;arcSize=6;size=0.27;align=center;labelPosition=center;" vertex="1" parent="1">
          <mxGeometry x="335" y="100" width="130" height="60" as="geometry" />
        </mxCell>
        <mxCell id="nqur4pg8UYw31Mnw8dUd-3" value="n = [3,5,1,2,4]" style="shape=parallelogram;html=1;strokeWidth=2;perimeter=parallelogramPerimeter;whiteSpace=wrap;rounded=1;arcSize=12;size=0.23;" vertex="1" parent="1">
          <mxGeometry x="305" y="190" width="190" height="50" as="geometry" />
        </mxCell>
        <mxCell id="nqur4pg8UYw31Mnw8dUd-4" value="for&lt;div&gt;i = 0&lt;/div&gt;&lt;div&gt;i&amp;lt;n.length&lt;/div&gt;&lt;div&gt;i++&lt;/div&gt;" style="strokeWidth=2;html=1;shape=mxgraph.flowchart.decision;whiteSpace=wrap;" vertex="1" parent="1">
          <mxGeometry x="350" y="270" width="100" height="100" as="geometry" />
        </mxCell>
        <mxCell id="nqur4pg8UYw31Mnw8dUd-5" value="min = i" style="rounded=1;whiteSpace=wrap;html=1;absoluteArcSize=1;arcSize=14;strokeWidth=2;" vertex="1" parent="1">
          <mxGeometry x="350" y="400" width="100" height="40" as="geometry" />
        </mxCell>
        <mxCell id="nqur4pg8UYw31Mnw8dUd-7" value="for&lt;div&gt;j = i+1&lt;/div&gt;&lt;div&gt;j&amp;lt;n.length&lt;/div&gt;&lt;div&gt;j++&lt;/div&gt;" style="strokeWidth=2;html=1;shape=mxgraph.flowchart.decision;whiteSpace=wrap;" vertex="1" parent="1">
          <mxGeometry x="350" y="470" width="100" height="100" as="geometry" />
        </mxCell>
        <mxCell id="nqur4pg8UYw31Mnw8dUd-8" value="if&lt;div&gt;n[j] &amp;lt; n[min]&lt;/div&gt;" style="strokeWidth=2;html=1;shape=mxgraph.flowchart.decision;whiteSpace=wrap;" vertex="1" parent="1">
          <mxGeometry x="350" y="600" width="100" height="100" as="geometry" />
        </mxCell>
        <mxCell id="nqur4pg8UYw31Mnw8dUd-9" value="min = j" style="rounded=1;whiteSpace=wrap;html=1;absoluteArcSize=1;arcSize=14;strokeWidth=2;" vertex="1" parent="1">
          <mxGeometry x="350" y="730" width="100" height="40" as="geometry" />
        </mxCell>
        <mxCell id="nqur4pg8UYw31Mnw8dUd-10" value="" style="endArrow=classic;html=1;rounded=0;exitX=0.5;exitY=1;exitDx=0;exitDy=0;exitPerimeter=0;entryX=0.5;entryY=0;entryDx=0;entryDy=0;" edge="1" parent="1" source="nqur4pg8UYw31Mnw8dUd-1" target="nqur4pg8UYw31Mnw8dUd-2">
          <mxGeometry width="50" height="50" relative="1" as="geometry">
            <mxPoint x="370" y="180" as="sourcePoint" />
            <mxPoint x="420" y="130" as="targetPoint" />
          </mxGeometry>
        </mxCell>
        <mxCell id="nqur4pg8UYw31Mnw8dUd-11" value="" style="endArrow=classic;html=1;rounded=0;exitX=0.5;exitY=1;exitDx=0;exitDy=0;entryX=0.5;entryY=0;entryDx=0;entryDy=0;" edge="1" parent="1" source="nqur4pg8UYw31Mnw8dUd-2" target="nqur4pg8UYw31Mnw8dUd-3">
          <mxGeometry width="50" height="50" relative="1" as="geometry">
            <mxPoint x="410" y="80" as="sourcePoint" />
            <mxPoint x="320" y="160" as="targetPoint" />
          </mxGeometry>
        </mxCell>
        <mxCell id="nqur4pg8UYw31Mnw8dUd-12" value="" style="endArrow=classic;html=1;rounded=0;exitX=0.5;exitY=1;exitDx=0;exitDy=0;" edge="1" parent="1" source="nqur4pg8UYw31Mnw8dUd-3">
          <mxGeometry width="50" height="50" relative="1" as="geometry">
            <mxPoint x="400" y="239" as="sourcePoint" />
            <mxPoint x="400" y="270" as="targetPoint" />
          </mxGeometry>
        </mxCell>
        <mxCell id="nqur4pg8UYw31Mnw8dUd-13" value="" style="endArrow=classic;html=1;rounded=0;entryX=0.5;entryY=0;entryDx=0;entryDy=0;exitX=0.5;exitY=1;exitDx=0;exitDy=0;exitPerimeter=0;" edge="1" parent="1" source="nqur4pg8UYw31Mnw8dUd-4" target="nqur4pg8UYw31Mnw8dUd-5">
          <mxGeometry width="50" height="50" relative="1" as="geometry">
            <mxPoint x="400" y="370" as="sourcePoint" />
            <mxPoint x="410" y="280" as="targetPoint" />
          </mxGeometry>
        </mxCell>
        <mxCell id="nqur4pg8UYw31Mnw8dUd-14" value="" style="endArrow=classic;html=1;rounded=0;exitX=0.5;exitY=1;exitDx=0;exitDy=0;entryX=0.5;entryY=0;entryDx=0;entryDy=0;entryPerimeter=0;" edge="1" parent="1" source="nqur4pg8UYw31Mnw8dUd-5" target="nqur4pg8UYw31Mnw8dUd-7">
          <mxGeometry width="50" height="50" relative="1" as="geometry">
            <mxPoint x="370" y="430" as="sourcePoint" />
            <mxPoint x="420" y="380" as="targetPoint" />
          </mxGeometry>
        </mxCell>
        <mxCell id="nqur4pg8UYw31Mnw8dUd-15" value="" style="endArrow=classic;html=1;rounded=0;exitX=0.5;exitY=1;exitDx=0;exitDy=0;exitPerimeter=0;entryX=0.5;entryY=0;entryDx=0;entryDy=0;entryPerimeter=0;" edge="1" parent="1" source="nqur4pg8UYw31Mnw8dUd-7" target="nqur4pg8UYw31Mnw8dUd-8">
          <mxGeometry width="50" height="50" relative="1" as="geometry">
            <mxPoint x="370" y="510" as="sourcePoint" />
            <mxPoint x="420" y="460" as="targetPoint" />
          </mxGeometry>
        </mxCell>
        <mxCell id="nqur4pg8UYw31Mnw8dUd-16" value="" style="endArrow=classic;html=1;rounded=0;exitX=0.5;exitY=1;exitDx=0;exitDy=0;exitPerimeter=0;entryX=0.5;entryY=0;entryDx=0;entryDy=0;" edge="1" parent="1" source="nqur4pg8UYw31Mnw8dUd-8" target="nqur4pg8UYw31Mnw8dUd-9">
          <mxGeometry width="50" height="50" relative="1" as="geometry">
            <mxPoint x="370" y="680" as="sourcePoint" />
            <mxPoint x="420" y="630" as="targetPoint" />
          </mxGeometry>
        </mxCell>
        <mxCell id="nqur4pg8UYw31Mnw8dUd-17" value="true" style="text;html=1;align=center;verticalAlign=middle;whiteSpace=wrap;rounded=0;" vertex="1" parent="1">
          <mxGeometry x="390" y="360" width="60" height="30" as="geometry" />
        </mxCell>
        <mxCell id="nqur4pg8UYw31Mnw8dUd-18" value="true" style="text;html=1;align=center;verticalAlign=middle;whiteSpace=wrap;rounded=0;" vertex="1" parent="1">
          <mxGeometry x="390" y="560" width="60" height="30" as="geometry" />
        </mxCell>
        <mxCell id="nqur4pg8UYw31Mnw8dUd-19" value="true" style="text;html=1;align=center;verticalAlign=middle;whiteSpace=wrap;rounded=0;" vertex="1" parent="1">
          <mxGeometry x="390" y="690" width="60" height="30" as="geometry" />
        </mxCell>
        <mxCell id="nqur4pg8UYw31Mnw8dUd-21" value="" style="endArrow=classic;html=1;rounded=0;exitX=1;exitY=0.5;exitDx=0;exitDy=0;exitPerimeter=0;entryX=1;entryY=0.5;entryDx=0;entryDy=0;entryPerimeter=0;" edge="1" parent="1" source="nqur4pg8UYw31Mnw8dUd-8" target="nqur4pg8UYw31Mnw8dUd-7">
          <mxGeometry width="50" height="50" relative="1" as="geometry">
            <mxPoint x="370" y="680" as="sourcePoint" />
            <mxPoint x="420" y="630" as="targetPoint" />
            <Array as="points">
              <mxPoint x="480" y="650" />
              <mxPoint x="480" y="520" />
            </Array>
          </mxGeometry>
        </mxCell>
        <mxCell id="nqur4pg8UYw31Mnw8dUd-22" value="false" style="text;html=1;align=center;verticalAlign=middle;whiteSpace=wrap;rounded=0;" vertex="1" parent="1">
          <mxGeometry x="430" y="620" width="60" height="30" as="geometry" />
        </mxCell>
        <mxCell id="nqur4pg8UYw31Mnw8dUd-23" value="&lt;div style=&quot;&quot;&gt;&lt;span style=&quot;background-color: initial;&quot;&gt;tmp = n[i]&lt;/span&gt;&lt;/div&gt;&lt;div style=&quot;&quot;&gt;n[i] = n[min]&lt;/div&gt;&lt;div style=&quot;&quot;&gt;n[min] = tmp&lt;/div&gt;" style="rounded=1;whiteSpace=wrap;html=1;absoluteArcSize=1;arcSize=14;strokeWidth=2;align=center;" vertex="1" parent="1">
          <mxGeometry x="160" y="480" width="100" height="80" as="geometry" />
        </mxCell>
        <mxCell id="nqur4pg8UYw31Mnw8dUd-24" value="" style="endArrow=classic;html=1;rounded=0;exitX=0;exitY=0.5;exitDx=0;exitDy=0;exitPerimeter=0;entryX=1;entryY=0.5;entryDx=0;entryDy=0;" edge="1" parent="1" source="nqur4pg8UYw31Mnw8dUd-7" target="nqur4pg8UYw31Mnw8dUd-23">
          <mxGeometry width="50" height="50" relative="1" as="geometry">
            <mxPoint x="370" y="680" as="sourcePoint" />
            <mxPoint x="420" y="630" as="targetPoint" />
          </mxGeometry>
        </mxCell>
        <mxCell id="nqur4pg8UYw31Mnw8dUd-25" value="false" style="text;html=1;align=center;verticalAlign=middle;whiteSpace=wrap;rounded=0;" vertex="1" parent="1">
          <mxGeometry x="305" y="490" width="60" height="30" as="geometry" />
        </mxCell>
        <mxCell id="nqur4pg8UYw31Mnw8dUd-27" value="" style="endArrow=classic;html=1;rounded=0;exitX=0.5;exitY=0;exitDx=0;exitDy=0;entryX=0;entryY=0.5;entryDx=0;entryDy=0;entryPerimeter=0;" edge="1" parent="1" source="nqur4pg8UYw31Mnw8dUd-23" target="nqur4pg8UYw31Mnw8dUd-4">
          <mxGeometry width="50" height="50" relative="1" as="geometry">
            <mxPoint x="370" y="590" as="sourcePoint" />
            <mxPoint x="420" y="540" as="targetPoint" />
            <Array as="points">
              <mxPoint x="210" y="320" />
            </Array>
          </mxGeometry>
        </mxCell>
        <mxCell id="nqur4pg8UYw31Mnw8dUd-28" value="end" style="strokeWidth=2;html=1;shape=mxgraph.flowchart.terminator;whiteSpace=wrap;" vertex="1" parent="1">
          <mxGeometry x="571" y="550" width="60" height="35" as="geometry" />
        </mxCell>
        <mxCell id="nqur4pg8UYw31Mnw8dUd-29" value="n = [1,2,3,4,5]" style="shape=parallelogram;html=1;strokeWidth=2;perimeter=parallelogramPerimeter;whiteSpace=wrap;rounded=1;arcSize=12;size=0.23;" vertex="1" parent="1">
          <mxGeometry x="506" y="430" width="190" height="50" as="geometry" />
        </mxCell>
        <mxCell id="nqur4pg8UYw31Mnw8dUd-30" value="" style="endArrow=classic;html=1;rounded=0;exitX=1;exitY=0.5;exitDx=0;exitDy=0;exitPerimeter=0;entryX=0.5;entryY=0;entryDx=0;entryDy=0;" edge="1" parent="1" source="nqur4pg8UYw31Mnw8dUd-4" target="nqur4pg8UYw31Mnw8dUd-29">
          <mxGeometry width="50" height="50" relative="1" as="geometry">
            <mxPoint x="370" y="430" as="sourcePoint" />
            <mxPoint x="420" y="380" as="targetPoint" />
            <Array as="points">
              <mxPoint x="600" y="320" />
            </Array>
          </mxGeometry>
        </mxCell>
        <mxCell id="nqur4pg8UYw31Mnw8dUd-32" value="" style="endArrow=classic;html=1;rounded=0;exitX=0.5;exitY=1;exitDx=0;exitDy=0;entryX=0.5;entryY=0;entryDx=0;entryDy=0;entryPerimeter=0;" edge="1" parent="1" source="nqur4pg8UYw31Mnw8dUd-29" target="nqur4pg8UYw31Mnw8dUd-28">
          <mxGeometry width="50" height="50" relative="1" as="geometry">
            <mxPoint x="370" y="590" as="sourcePoint" />
            <mxPoint x="420" y="540" as="targetPoint" />
          </mxGeometry>
        </mxCell>
        <mxCell id="nqur4pg8UYw31Mnw8dUd-33" value="" style="endArrow=classic;html=1;rounded=0;exitX=1;exitY=0.5;exitDx=0;exitDy=0;entryX=0.842;entryY=0.928;entryDx=0;entryDy=0;entryPerimeter=0;" edge="1" parent="1" source="nqur4pg8UYw31Mnw8dUd-9">
          <mxGeometry width="50" height="50" relative="1" as="geometry">
            <mxPoint x="449" y="754" as="sourcePoint" />
            <mxPoint x="479.52" y="651.8399999999999" as="targetPoint" />
            <Array as="points">
              <mxPoint x="480" y="750" />
            </Array>
          </mxGeometry>
        </mxCell>
      </root>
    </mxGraphModel>
  </diagram>
</mxfile>
